<svg width="1213" height="439" viewBox="0 0 1213 439" fill="none" xmlns="http://www.w3.org/2000/svg">
<path d="M0 198.165C0 165.214 6.33037 135.466 18.9911 108.922C31.6518 82.3779 51.0951 61.0207 77.3209 44.8502C103.848 28.3746 135.199 20.1368 171.372 20.1368C189.76 20.1368 208.299 22.8827 226.989 28.3746C245.679 33.8665 260.6 39.3583 271.754 44.8502L288.484 53.5457C289.388 53.5457 290.895 52.7829 293.006 51.2574C295.116 49.7319 296.774 48.9691 297.979 48.9691C299.487 48.9691 300.994 49.5793 302.501 50.7997C304.008 52.0201 304.762 55.5288 304.762 61.3258C305.063 66.8177 305.666 74.5978 306.571 84.6662C307.776 94.4295 308.831 102.515 309.736 108.922C310.64 115.329 311.092 119.143 311.092 120.363C311.092 125.855 309.284 128.601 305.666 128.601C302.953 128.601 300.391 126.465 297.979 122.194C268.739 66.6651 226.537 38.9007 171.372 38.9007C133.691 38.9007 102.793 51.1048 78.6774 75.5131C54.5617 99.9214 42.5039 131.805 42.5039 171.163C42.5039 215.098 53.6574 252.626 75.9644 283.746C87.4193 299.612 103.095 312.121 122.99 321.274C142.885 330.427 166.097 335.004 192.624 335.004C236.032 335.004 272.507 312.121 302.049 266.355C303.255 264.22 305.516 263.152 308.831 263.152C311.544 263.152 312.901 265.135 312.901 269.101C312.901 272.763 312.298 277.492 311.092 283.289C310.188 288.78 308.982 295.035 307.475 302.052C305.968 308.765 305.063 312.884 304.762 314.409C304.159 317.765 301.747 320.511 297.527 322.647C281.249 330.58 268.588 336.529 259.545 340.496C235.429 350.869 209.656 356.056 182.224 356.056C155.094 356.056 130.978 352.852 109.877 346.445C88.7759 340.038 71.4427 331.648 57.8776 321.274C44.614 310.9 33.4605 298.696 24.4171 284.662C8.13904 259.948 0 231.116 0 198.165Z" fill="#2A1414"/>
<path d="M464.508 375.277L465.865 248.964V238.896C465.865 213.572 464.659 196.792 462.247 188.554C460.137 180.011 454.259 175.74 444.613 175.74C439.488 175.74 436.323 175.435 435.117 174.824C433.912 173.909 433.309 172.689 433.309 171.163C433.309 169.332 434.514 167.959 436.926 167.044C439.639 166.129 444.914 164.451 452.752 162.01C460.589 159.569 469.633 155.908 479.882 151.026C490.131 145.839 495.708 143.246 496.612 143.246C500.531 143.246 502.49 145.229 502.49 149.196L500.682 176.197C500.682 178.638 500.983 179.859 501.586 179.859C502.189 179.859 503.546 178.791 505.656 176.655C508.067 174.519 511.082 171.926 514.699 168.875C518.316 165.519 522.687 162.315 527.812 159.264C539.568 151.942 553.586 148.28 569.864 148.28C596.692 148.28 617.191 157.281 631.359 175.282C645.527 192.978 652.611 215.403 652.611 242.557C652.611 269.406 643.718 294.272 625.933 317.155C608.449 339.733 584.936 351.022 555.394 351.022C541.528 351.022 530.224 349.649 521.482 346.903C513.041 343.852 507.163 340.953 503.847 338.207C500.531 335.156 498.27 333.631 497.064 333.631C496.16 333.631 495.708 334.851 495.708 337.292V393.584C495.708 399.38 498.27 406.55 503.395 415.093C506.711 420.585 511.685 423.789 518.316 424.704C525.25 425.619 530.977 426.23 535.499 426.535C540.322 426.84 542.734 428.823 542.734 432.484C542.734 436.451 537.609 438.434 527.36 438.434C525.551 438.434 520.728 438.129 512.89 437.518C505.053 436.908 494.201 436.603 480.334 436.603L451.848 437.976C445.216 437.976 440.996 437.671 439.187 437.061C437.378 436.451 436.474 434.925 436.474 432.484C436.474 430.349 437.83 428.67 440.543 427.45C443.558 426.23 446.874 425.162 450.491 424.246C454.108 423.331 457.274 419.517 459.987 412.805C463.001 406.398 464.508 396.94 464.508 384.43V375.277ZM495.708 259.033L496.16 281.916C496.16 292.594 498.421 301.747 502.943 309.375C507.464 317.003 513.343 322.799 520.577 326.766C533.841 333.783 547.858 337.292 562.629 337.292C582.223 337.292 597.145 330.122 607.394 315.782C617.944 301.137 623.22 282.526 623.22 259.948C623.22 237.371 616.739 216.929 603.776 198.622C591.116 180.316 573.933 171.163 552.229 171.163C536.855 171.163 523.14 176.045 511.082 185.808C504.751 190.69 500.531 197.402 498.421 205.945C496.612 214.183 495.708 231.879 495.708 259.033Z" fill="#2A1414"/>
<path d="M704.974 344.614L672.87 346.903C665.334 346.903 661.415 346.445 661.114 345.53C660.812 344.614 660.661 343.547 660.661 342.326C660.661 339.275 662.47 337.292 666.087 336.377C674.829 333.936 680.406 330.122 682.818 324.935C685.531 319.443 686.887 311.511 686.887 301.137L688.696 145.077V122.652C688.696 81.1575 687.792 55.8339 685.983 46.6808C684.174 37.5277 678.748 32.9512 669.705 32.9512H663.827L662.018 32.4935C656.893 32.4935 654.331 31.1205 654.331 28.3746C654.331 25.6287 655.838 23.493 658.853 21.9674C662.169 20.1368 666.69 18.4588 672.418 16.9332C678.447 15.4077 686.887 12.2041 697.739 7.32247C708.591 2.44082 715.374 0 718.087 0C722.006 0 723.965 3.50869 723.965 10.5261C723.965 12.0516 723.362 15.7128 722.156 21.5098C721.252 27.3068 720.649 38.5956 720.348 55.3763C720.348 71.8519 720.046 89.7004 719.443 108.922C719.142 127.838 718.84 140.653 718.539 147.365C717.936 160.179 717.635 169.18 717.635 174.367C717.635 179.553 718.84 182.147 721.252 182.147C721.855 182.147 724.869 179.401 730.295 173.909C736.023 168.112 743.71 162.468 753.356 156.976C763.304 151.179 773.854 148.28 785.008 148.28C809.425 148.28 828.416 155.603 841.981 170.248C855.546 184.893 862.329 207.623 862.329 238.438V304.798C862.329 313.036 863.836 319.443 866.85 324.02C869.865 328.596 873.332 331.037 877.25 331.342C893.528 332.868 901.667 336.072 901.667 340.953C901.667 345.835 896.995 348.276 887.65 348.276L849.668 345.987L814.851 347.36C807.918 347.36 804.451 345.835 804.451 342.784C804.451 337.292 808.521 334.546 816.66 334.546C819.674 334.546 822.387 332.868 824.799 329.512C827.512 326.156 828.868 320.969 828.868 313.951L829.32 302.052L829.773 237.981C829.773 219.369 824.196 203.351 813.042 189.927C801.889 176.197 788.927 169.332 774.156 169.332C759.686 169.332 744.916 175.282 729.843 187.181C724.417 191.452 720.951 198.47 719.443 208.233C717.936 217.691 717.182 238.896 717.182 271.847V282.373C717.182 296.103 718.238 307.239 720.348 315.782C723.664 327.681 731.953 334.088 745.217 335.004C749.437 335.309 752.602 335.919 754.713 336.834C757.124 337.444 758.33 338.97 758.33 341.411C758.33 345.072 756.672 346.903 753.356 346.903L741.6 346.445C733.762 346.14 725.774 345.835 717.635 345.53C709.797 344.919 705.577 344.614 704.974 344.614Z" fill="#2A1414"/>
<path d="M996.69 355.598C970.163 355.598 947.554 347.36 928.865 330.885C910.477 314.409 901.282 290.611 901.282 259.491C901.282 228.065 909.723 201.826 926.604 180.774C943.786 159.722 965.943 149.196 993.073 149.196C1005.73 149.196 1017.19 151.484 1027.44 156.06C1037.99 160.637 1046.13 166.281 1051.85 172.994C1057.58 179.401 1062.41 186.266 1066.32 193.588C1072.96 206.097 1076.27 215.556 1076.27 221.963C1076.27 227.455 1070.09 230.201 1057.73 230.201H941.525C939.114 230.201 937.607 230.506 937.004 231.116C936.702 231.421 936.552 232.794 936.552 235.235C936.552 263.915 944.088 286.492 959.16 302.968C974.534 319.443 992.47 327.681 1012.97 327.681C1025.63 327.681 1038.44 324.325 1051.4 317.613C1064.67 310.595 1071.6 307.087 1072.2 307.087C1075.22 307.087 1076.72 308.46 1076.72 311.206C1076.72 314.867 1073.41 319.901 1066.78 326.308C1060.14 332.41 1053.81 337.444 1047.79 341.411C1033.32 350.869 1016.28 355.598 996.69 355.598ZM945.143 219.217L1024.72 216.471C1028.94 216.471 1031.51 216.166 1032.41 215.556C1033.62 214.64 1034.22 213.115 1034.22 210.979C1034.22 201.826 1030 191.147 1021.56 178.943C1013.12 166.739 1001.36 160.637 986.29 160.637C971.218 160.637 959.612 166.739 951.473 178.943C943.334 190.842 939.265 202.131 939.265 212.81C939.265 217.081 941.224 219.217 945.143 219.217Z" fill="#2A1414"/>
<path d="M1208.03 186.638C1206.52 198.231 1203.2 204.028 1198.08 204.028C1195.37 204.028 1193.1 202.503 1191.3 199.452C1189.49 196.096 1187.23 192.892 1184.51 189.841C1181.8 186.485 1178.18 184.807 1173.66 184.807C1164.92 184.807 1157.53 193.96 1151.5 212.266C1145.48 230.572 1141.56 247.811 1139.75 263.981L1137.49 279.084C1132.06 322.103 1128.14 346.054 1125.73 350.936C1122.72 354.902 1118.2 356.885 1112.17 356.885H1109.91C1100.86 356.885 1096.34 352.919 1096.34 344.986C1096.34 340.105 1099.51 322.103 1105.84 290.983C1112.47 259.862 1115.78 237.895 1115.78 225.081C1115.78 204.334 1110.66 193.96 1100.41 193.96C1094.98 193.96 1090.46 196.248 1086.84 200.825C1083.23 205.096 1080.51 210.13 1078.71 215.927C1076.9 221.419 1075.39 224.775 1074.18 225.996C1073.28 226.911 1072.07 227.369 1070.57 227.369C1066.95 227.369 1065.14 224.775 1065.14 219.589C1065.14 200.062 1069.81 185.112 1079.16 174.738C1089.71 162.534 1098.9 156.432 1106.74 156.432C1114.58 156.432 1120.46 161.772 1124.37 172.45C1131.91 192.587 1136.13 202.655 1137.04 202.655C1137.34 202.655 1140.2 198.842 1145.63 191.214C1151.05 183.281 1158.29 175.349 1167.33 167.416C1176.68 159.483 1185.12 155.517 1192.65 155.517C1200.49 155.517 1205.77 157.042 1208.48 160.094C1211.49 162.839 1213 165.738 1213 168.789C1213 171.84 1212.1 175.501 1210.29 179.773C1208.78 184.044 1208.03 186.332 1208.03 186.638Z" fill="#2A1414"/>
<path d="M358.054 296.472V249.506H372.669V202.54H358.054V186.885H401.898V265.161H387.283V296.472H372.669V327.782H387.283V343.438H343.44V296.472H358.054ZM358.054 202.497V218.152H343.44V202.497H358.054ZM416.512 124.221V155.531H387.283V124.221H416.512ZM401.898 312.127V327.782H387.283V312.127H401.898Z" fill="#2A1414"/>
</svg>
